<svg width="885" height="886" viewBox="0 0 885 886" fill="none" xmlns="http://www.w3.org/2000/svg">
<path d="M387.396 1.99126C293.425 13.9193 204.443 57.0275 135.005 123.992C66.6051 190.328 20.4511 278.218 4.85847 372.177C0.0767507 400.428 -1.58646 458.603 1.73996 487.481C11.3034 575.999 46.2308 660.123 99.8692 724.785C137.915 770.823 191.969 814.141 243.945 840.299C279.08 858.086 330.224 874.618 372.843 882.151C399.247 886.755 480.744 887.383 505.9 883.197C554.757 875.036 592.387 862.899 634.799 841.973C672.844 823.348 702.158 803.887 732.512 777.729C818.167 703.441 872.014 598.391 883.032 484.342C890.725 404.613 875.756 323.419 839.997 249.759C773.469 113.319 643.946 20.4064 494.465 1.782C473.883 -0.729154 408.394 -0.519891 387.396 1.99126ZM488.228 22.7083C527.73 27.5213 562.865 36.5197 599.455 51.3774C732.72 105.158 831.265 227.577 857.461 371.131C862.658 400.009 863.905 469.694 859.54 499.828C844.155 605.087 793.219 698 714.009 764.964C660.578 810.165 592.803 843.647 528.977 856.621C441.451 874.199 358.29 866.247 279.08 832.556C183.861 792.168 109.225 721.228 64.1103 628.524C15.6693 529.125 7.97699 417.378 42.2807 312.119C62.4471 250.386 94.4638 197.652 140.826 149.522C208.394 79.8371 292.593 36.7289 386.357 23.9639C412.552 20.4064 464.112 19.7786 488.228 22.7083Z" fill="#08326B"/>
<path d="M403.701 79.3011C319.291 86.8319 240.703 125.532 178.747 190.38C125.731 245.815 94.5456 307.317 80.8239 383.462C76.25 408.983 75.6263 471.321 79.7844 496.424C99.1195 616.498 169.807 715.235 275.423 769.206C296.63 780.084 330.102 793.263 346.735 797.447C352.14 798.702 352.348 798.493 352.348 789.497C352.348 776.109 357.962 734.062 362.743 712.098C365.03 701.847 366.694 693.061 366.278 692.852C366.07 692.643 359.417 688.878 351.309 684.694C329.894 673.398 330.726 674.862 338.834 658.336C346.735 642.647 348.19 641.392 364.407 637.626C375.841 634.907 377.089 633.024 373.97 621.519C372.931 617.753 371.683 617.126 366.694 618.172C363.367 618.799 360.664 618.799 360.664 617.963C360.664 617.335 363.367 611.687 366.694 605.62C371.891 595.998 372.723 592.023 373.762 571.732C374.386 558.971 376.049 543.91 377.297 537.843C379.376 528.639 379.168 526.129 376.049 520.062C370.852 510.021 348.814 488.684 336.339 481.571C330.31 478.224 325.32 475.087 325.32 474.459C325.32 473.831 339.874 465.882 357.546 456.678C375.218 447.474 389.771 439.734 389.771 439.315C389.771 438.478 383.326 425.509 382.286 424.463C382.079 424.044 367.317 431.366 349.437 440.78C331.766 450.193 316.796 457.724 316.173 457.724C315.549 457.724 314.925 450.821 314.925 442.453C314.925 424.672 310.975 407.1 303.698 390.156L298.293 378.232L303.075 379.278C314.301 381.997 376.049 392.875 376.673 392.039C377.089 391.829 377.505 387.855 377.92 383.253L378.336 375.094L339.458 367.982L300.58 360.869L309.728 349.155C320.747 334.93 333.013 309.827 334.884 297.485C335.508 292.465 336.755 288.281 337.587 288.281C338.418 288.281 351.101 302.296 366.07 319.659C380.831 336.813 393.305 351.037 393.929 351.037C394.553 351.037 397.671 348.527 400.79 345.599C408.067 339.323 409.938 342.67 375.841 303.342C361.912 287.235 351.101 273.428 351.724 272.801C352.556 272.173 356.922 271.546 361.704 271.546C378.336 271.546 408.69 259.413 425.739 246.025L433.431 239.749V284.934V330.119H442.787H452.143V284.934V239.749L462.33 247.28C480.002 260.459 509.524 271.546 526.365 271.546C530.107 271.546 533.226 272.173 533.226 273.01C533.226 274.056 520.959 289.327 506.198 307.108L479.378 339.323L486.031 345.18L492.684 350.828L501.416 340.996C506.198 335.557 518.464 321.123 528.444 308.781C538.423 296.439 547.363 286.398 547.987 286.398C548.819 286.189 550.066 289.536 550.898 293.72C552.353 302.087 558.174 315.475 560.253 315.475C561.085 315.475 563.788 313.174 566.491 310.246L571.48 304.807L567.946 291.628C561.917 268.826 562.125 268.408 584.578 241.004C607.032 213.81 604.953 214.019 610.982 239.121C612.853 247.071 615.14 254.392 615.972 255.229C616.804 256.066 620.13 253.555 623.249 249.581L628.862 242.468L625.744 229.29C624.08 221.968 622.625 211.299 622.625 205.651C622.625 195.819 623.457 194.146 638.218 175.528C647.574 163.604 653.395 154.609 652.979 152.517C652.355 150.634 651.316 146.66 650.484 143.313C649.861 140.175 648.613 137.665 647.574 137.665C646.742 137.665 638.218 147.287 628.654 159.002C619.091 170.717 609.943 181.385 608.487 183.059C604.953 186.406 570.649 186.824 552.769 183.477C521.791 177.829 487.279 158.793 463.577 134.318L450.064 120.302V98.7556V77L436.134 77.2092C428.234 77.4184 413.68 78.2551 403.701 79.3011ZM433.431 100.638V120.302L421.788 133.063C391.642 166.533 342.369 187.87 294.966 187.87C277.71 187.87 277.294 187.661 269.602 180.549L261.909 173.018L276.463 159.42C312.015 126.369 362.743 98.9648 413.68 85.3675C421.788 83.0665 429.481 81.393 430.936 81.393C432.807 81.1838 433.431 86.4135 433.431 100.638ZM421.996 225.106C401.83 243.933 375.01 254.811 347.774 254.811H333.845L313.47 231.591C302.243 219.039 292.887 207.743 292.471 206.488C292.056 205.442 298.293 204.605 307.233 204.605C326.36 204.605 358.169 196.865 378.336 187.033C392.682 180.13 423.244 158.793 429.273 151.262C431.976 147.915 432.392 150.844 433.015 180.758L433.639 214.019L421.996 225.106ZM481.873 172.809C506.822 190.171 538.631 201.049 572.104 203.559L591.231 205.024L571.272 228.871C559.214 243.514 549.442 253.346 546.324 253.974C538.008 256.066 515.346 252.928 501.208 247.698C484.576 241.632 472.309 234.31 461.083 223.641L452.143 215.274V181.385V147.497L462.122 156.91C467.528 161.931 476.26 169.252 481.873 172.809ZM256.712 193.1C261.286 197.911 261.494 199.166 260.246 219.667C257.751 264.015 237.584 305.016 205.151 331.583C194.34 340.578 184.777 343.088 178.331 338.905C172.51 335.139 190.39 279.704 207.23 248.535C221.784 221.759 245.901 187.87 250.267 187.87C251.098 187.87 254.009 190.171 256.712 193.1ZM303.283 247.28C323.034 270.081 323.034 270.5 318.044 292.046C312.638 314.639 298.709 337.859 282.076 352.083L275.839 357.313L247.148 351.874C231.139 348.946 217.833 346.017 217.418 345.808C217.002 345.389 220.12 342.042 224.486 338.277C250.059 315.685 270.226 275.729 275.839 236.611C278.75 216.32 275.423 215.065 303.283 247.28ZM191.429 362.961C216.794 395.804 226.981 428.019 224.902 468.183C224.279 480.316 222.199 494.541 220.328 499.98C217.418 508.138 215.546 510.439 207.438 514.205C199.954 517.761 197.459 518.179 196.211 515.878C192.677 510.23 181.866 474.459 177.708 454.586C173.134 432.621 169.599 373.421 172.302 362.543C173.55 357.313 174.381 356.895 181.242 357.941C185.192 358.568 189.766 360.869 191.429 362.961ZM251.514 370.492L274.384 375.094L281.037 384.926C294.55 405.427 300.788 438.06 295.59 462.535C293.927 470.066 293.095 470.903 266.691 484.082L239.663 497.679L241.119 487.847C241.95 482.408 242.366 468.392 242.366 456.887C242.158 430.529 236.961 408.564 225.11 384.508C220.12 374.676 215.962 366.099 215.546 365.262C214.715 363.589 220.12 364.426 251.514 370.492ZM320.539 493.286C336.755 501.444 350.061 513.368 360.456 529.057C373.762 548.93 373.554 551.022 357.546 583.237L343.616 611.268L333.013 590.35C318.46 561.691 295.382 538.471 267.107 523.828L247.564 513.577L273.552 500.398C287.69 493.077 301.203 487.219 303.698 487.219C305.985 487.01 313.678 489.939 320.539 493.286ZM255.672 538.052C289.145 554.997 313.886 583.028 325.528 617.544L331.142 634.488L323.865 648.086C319.915 655.617 316.173 662.101 315.757 662.52C314.301 664.193 275.631 631.141 261.909 616.498C240.287 593.278 206.814 545.374 206.814 537.425C206.814 536.17 210.349 533.241 214.715 530.94C225.11 525.292 232.803 526.547 255.672 538.052Z" fill="#08326B"/>
<path d="M670.873 138.859C671.706 142.207 672.54 156.226 672.331 170.037C672.331 191.171 671.29 197.657 666.706 211.886C658.581 236.577 640.039 263.57 611.913 291.818C588.788 314.835 588.371 315.463 582.746 333.04C579.412 342.874 576.287 351.035 575.454 351.035C574.621 351.035 573.37 347.268 572.537 342.665C571.704 338.062 570.454 334.295 569.62 334.295C566.495 334.295 507.536 384.096 486.493 404.393C448.784 440.592 427.95 473.653 420.033 509.434C417.95 519.06 415.658 526.802 414.825 526.802C413.992 526.802 411.908 523.872 410.033 520.524C408.158 516.967 406.075 514.247 405.033 514.247C402.325 514.247 396.7 540.612 393.991 565.094C391.908 583.298 392.116 593.342 394.408 615.313C398.366 654.861 398.158 659.046 389.824 686.875C385.658 700.686 380.241 723.703 377.949 738.141C373.991 762.413 368.365 831.883 370.449 833.976C370.866 834.394 373.991 829.372 377.324 822.676C387.533 802.379 404.408 779.99 422.533 762.204L439.826 745.255L433.575 729.98L427.534 714.496L433.992 698.175C437.742 689.177 441.701 681.016 442.951 679.97C444.409 678.715 457.326 673.065 472.118 666.997C506.911 652.768 530.869 638.121 551.078 619.08C560.037 610.71 567.329 602.968 567.329 602.131C567.329 601.294 561.495 600.875 554.412 601.503L541.286 602.549L560.662 590.831C607.746 562.583 651.497 523.454 672.54 490.602L676.29 484.743L658.789 485.999C644.414 487.045 642.122 486.836 645.456 484.743C689.207 457.96 715.457 432.641 736.083 397.278C742.958 385.351 755.458 356.057 757.75 346.431L759 340.782L743.166 348.105C734.624 351.872 727.124 355.22 726.499 355.22C725.874 355.22 729.833 349.779 735.249 343.083C761.708 310.65 765.667 276.962 748.375 231.764C736.708 201.005 707.124 162.295 678.165 139.905L669.206 133L670.873 138.859ZM704.832 190.961C729.416 224.231 740.666 252.27 741.083 280.937C741.291 296.003 740.666 299.142 734.208 312.115C726.499 327.808 702.957 353.546 677.956 373.006L664.623 383.468L671.498 384.096C677.123 384.723 705.457 379.492 723.166 374.68L728.166 373.424L723.582 382.631C700.874 427.201 661.914 459.424 585.454 496.67C569.62 504.412 572.745 505.459 610.038 505.668L638.997 505.877L625.663 519.687C611.705 533.916 583.787 556.096 562.745 569.488C556.078 573.673 534.411 585.6 514.202 596.062C494.202 606.525 477.326 615.941 476.701 616.987C475.868 618.033 485.66 618.87 500.035 618.87H524.619L508.577 629.333C499.827 635.191 479.827 645.445 464.201 652.14C448.576 659.046 433.784 665.951 431.075 667.625C428.367 669.508 423.575 677.459 420.242 685.62C416.908 693.781 413.575 700.476 412.95 700.476C412.325 700.476 410.242 698.802 408.158 696.501C405.033 692.944 405.033 691.688 410.867 674.948L417.117 657.372L413.992 638.749C410.867 620.335 409.2 559.444 411.7 556.724C412.533 556.096 416.908 559.654 421.283 564.675C429.2 573.464 429.617 573.673 429.825 568.651C430.034 554.841 434.409 522.408 437.534 511.108C444.826 483.697 457.951 460.261 480.66 433.896C490.243 422.806 542.953 375.726 557.12 365.682L562.745 361.497L569.412 379.702C575.037 394.767 576.704 397.278 578.787 394.349C580.037 392.466 586.079 375.726 592.329 357.103L603.371 323.414L624.205 303.117C635.455 292.027 649.414 276.962 655.039 269.429C674.415 243.482 690.248 205.19 690.248 183.847C690.248 179.034 690.873 175.268 691.915 175.268C692.748 175.268 698.582 182.382 704.832 190.961ZM412.95 725.167C420.867 741.07 420.867 741.07 405.658 755.927C397.741 763.25 391.283 769.109 391.074 768.9C390.658 768.272 395.658 734.584 397.533 726.632C400.658 712.822 400.658 712.822 405.033 715.124C407.116 716.379 410.658 720.773 412.95 725.167Z" fill="#08326B"/>
<path d="M730.256 439.079C724.634 446.2 724.426 447.875 728.798 456.253C731.921 462.327 731.921 462.536 728.59 461.28C718.18 457.3 715.265 457.719 707.978 463.584C703.814 466.725 700.483 470.076 700.483 470.705C700.483 471.542 706.521 473.846 714.016 475.731C721.511 477.826 727.549 480.13 727.549 480.758C727.549 481.596 724.218 483.9 720.054 486.204C702.981 495.419 675.29 527.883 662.382 553.645C655.303 567.677 646.35 598.466 646.35 608.938C646.35 613.546 645.726 617.106 644.893 617.106C643.435 616.897 637.189 609.357 616.994 583.176L613.662 578.778L607 583.386C603.461 585.899 600.546 589.041 600.546 590.088C600.546 591.345 607.208 600.141 615.12 609.776C623.24 619.41 629.694 627.788 629.694 628.207C629.694 628.626 622.407 629.673 613.662 630.301C575.145 633.443 543.498 648.313 512.685 677.636L504.773 684.966V679.311C504.773 674.075 504.565 673.866 499.151 676.169C495.82 677.636 491.864 679.939 489.991 681.406C488.325 682.872 484.994 684.128 482.703 684.128C480.621 684.338 475.625 686.013 471.877 687.898L465.215 691.668L476.041 698.999C487.909 706.958 494.779 716.173 491.24 719.315C489.991 720.362 481.246 720.572 470.628 719.524C460.218 718.477 451.681 718.058 451.265 718.477C450.849 718.896 452.722 727.064 455.637 736.699L460.634 754.292L455.221 758.481C439.814 769.791 409 803.302 409 808.748C409 812.099 492.489 808.119 512.268 803.93C583.057 788.641 640.521 758.481 692.571 709.471C752.741 652.921 794.174 572.285 803.543 493.325L805 481.596L782.306 475.731C770.022 472.38 757.946 468.191 755.448 466.097C753.158 463.793 748.161 455.625 744.205 447.456C740.249 439.498 736.71 432.795 736.085 433.005C735.461 433.005 732.754 435.728 730.256 439.079ZM777.517 492.487C788.136 495.419 797.505 498.142 797.921 498.561C799.379 500.236 785.429 532.7 775.227 551.341C761.486 576.265 741.707 602.655 720.47 624.227C705.48 639.517 682.161 658.995 679.246 658.995C678.621 658.995 674.041 653.759 669.252 647.476L660.3 635.956L661.757 620.457C666.546 568.096 695.278 521.181 739.208 494.581C745.871 490.602 752.741 487.251 754.407 487.251C756.281 487.251 766.691 489.555 777.517 492.487ZM638.23 647.685C646.142 648.942 648.64 650.617 656.136 660.042L664.88 670.933L647.808 680.568C612.83 700.046 561.404 716.383 526.426 719.105L508.937 720.362V714.917C508.937 708.005 523.719 689.783 538.293 678.473C569.732 654.387 606.375 643.077 638.23 647.685Z" fill="#08326B"/>
</svg>
