<svg width="877" height="693" viewBox="0 0 877 693" fill="none" xmlns="http://www.w3.org/2000/svg">
<path d="M410 1.26887C349.733 8.86887 292.667 36.3356 248.133 79.0022C204.267 121.269 174.667 177.269 164.667 237.136C161.6 255.136 160.533 292.202 162.667 310.602C168.8 367.002 191.2 420.602 225.6 461.802C250 491.136 284.667 518.736 318 535.402C340.533 546.736 373.333 557.269 400.667 562.069C417.6 565.002 469.867 565.402 486 562.736C517.333 557.536 541.467 549.802 568.667 536.469C593.067 524.602 611.867 512.202 631.333 495.536C686.267 448.202 720.8 381.269 727.867 308.602C732.8 257.802 723.2 206.069 700.267 159.136C657.6 72.2022 574.533 13.0022 478.667 1.13553C465.467 -0.464466 423.467 -0.331133 410 1.26887ZM474.667 14.4689C500 17.5355 522.533 23.2689 546 32.7356C631.467 67.0022 694.667 145.002 711.467 236.469C714.8 254.869 715.6 299.269 712.8 318.469C702.933 385.536 670.267 444.736 619.467 487.402C585.2 516.202 541.733 537.536 500.8 545.802C444.667 557.002 391.333 551.936 340.533 530.469C279.467 504.736 231.6 459.536 202.667 400.469C171.6 337.136 166.667 265.936 188.667 198.869C201.6 159.536 222.133 125.936 251.867 95.2689C295.2 50.8689 349.2 23.4022 409.333 15.2689C426.133 13.0022 459.2 12.6022 474.667 14.4689Z" fill="#08326B"/>
<path d="M420.933 50.6022C366.8 55.4022 316.4 80.0688 276.667 121.402C242.667 156.736 222.667 195.936 213.867 244.469C210.933 260.736 210.533 300.469 213.2 316.469C225.6 393.002 270.933 455.936 338.667 490.336C352.267 497.269 373.733 505.669 384.4 508.336C387.867 509.136 388 509.002 388 503.269C388 494.736 391.6 467.936 394.667 453.936C396.133 447.402 397.2 441.802 396.933 441.669C396.8 441.536 392.533 439.136 387.333 436.469C373.6 429.269 374.133 430.202 379.333 419.669C384.4 409.669 385.333 408.869 395.733 406.469C403.067 404.736 403.867 403.536 401.867 396.202C401.2 393.802 400.4 393.402 397.2 394.069C395.067 394.469 393.333 394.469 393.333 393.936C393.333 393.536 395.067 389.936 397.2 386.069C400.533 379.936 401.067 377.402 401.733 364.469C402.133 356.336 403.2 346.736 404 342.869C405.333 337.002 405.2 335.402 403.2 331.536C399.867 325.136 385.733 311.536 377.733 307.002C373.867 304.869 370.667 302.869 370.667 302.469C370.667 302.069 380 297.002 391.333 291.136C402.667 285.269 412 280.336 412 280.069C412 279.536 407.867 271.269 407.2 270.602C407.067 270.336 397.6 275.002 386.133 281.002C374.8 287.002 365.2 291.802 364.8 291.802C364.4 291.802 364 287.402 364 282.069C364 270.736 361.467 259.536 356.8 248.736L353.333 241.136L356.4 241.802C363.6 243.536 403.2 250.469 403.6 249.936C403.867 249.802 404.133 247.269 404.4 244.336L404.667 239.136L379.733 234.602L354.8 230.069L360.667 222.602C367.733 213.536 375.6 197.536 376.8 189.669C377.2 186.469 378 183.802 378.533 183.802C379.067 183.802 387.2 192.736 396.8 203.802C406.267 214.736 414.267 223.802 414.667 223.802C415.067 223.802 417.067 222.202 419.067 220.336C423.733 216.336 424.933 218.469 403.067 193.402C394.133 183.136 387.2 174.336 387.6 173.936C388.133 173.536 390.933 173.136 394 173.136C404.667 173.136 424.133 165.402 435.067 156.869L440 152.869V181.669V210.469H446H452V181.669V152.869L458.533 157.669C469.867 166.069 488.8 173.136 499.6 173.136C502 173.136 504 173.536 504 174.069C504 174.736 496.133 184.469 486.667 195.802L469.467 216.336L473.733 220.069L478 223.669L483.6 217.402C486.667 213.936 494.533 204.736 500.933 196.869C507.333 189.002 513.067 182.602 513.467 182.602C514 182.469 514.8 184.602 515.333 187.269C516.267 192.602 520 201.136 521.333 201.136C521.867 201.136 523.6 199.669 525.333 197.802L528.533 194.336L526.267 185.936C522.4 171.402 522.533 171.136 536.933 153.669C551.333 136.336 550 136.469 553.867 152.469C555.067 157.536 556.533 162.202 557.067 162.736C557.6 163.269 559.733 161.669 561.733 159.136L565.333 154.602L563.333 146.202C562.267 141.536 561.333 134.736 561.333 131.136C561.333 124.869 561.867 123.802 571.333 111.936C577.333 104.336 581.067 98.6022 580.8 97.2688C580.4 96.0688 579.733 93.5355 579.2 91.4022C578.8 89.4022 578 87.8022 577.333 87.8022C576.8 87.8022 571.333 93.9355 565.2 101.402C559.067 108.869 553.2 115.669 552.267 116.736C550 118.869 528 119.136 516.533 117.002C496.667 113.402 474.533 101.269 459.333 85.6688L450.667 76.7355V63.0022V49.1355L441.733 49.2688C436.667 49.4022 427.333 49.9355 420.933 50.6022ZM440 64.2022V76.7355L432.533 84.8688C413.2 106.202 381.6 119.802 351.2 119.802C340.133 119.802 339.867 119.669 334.933 115.136L330 110.336L339.333 101.669C362.133 80.6022 394.667 63.1355 427.333 54.4688C432.533 53.0022 437.467 51.9355 438.4 51.9355C439.6 51.8022 440 55.1355 440 64.2022ZM432.667 143.536C419.733 155.536 402.533 162.469 385.067 162.469H376.133L363.067 147.669C355.867 139.669 349.867 132.469 349.6 131.669C349.333 131.002 353.333 130.469 359.067 130.469C371.333 130.469 391.733 125.536 404.667 119.269C413.867 114.869 433.467 101.269 437.333 96.4688C439.067 94.3355 439.333 96.2022 439.733 115.269L440.133 136.469L432.667 143.536ZM471.067 110.202C487.067 121.269 507.467 128.202 528.933 129.802L541.2 130.736L528.4 145.936C520.667 155.269 514.4 161.536 512.4 161.936C507.067 163.269 492.533 161.269 483.467 157.936C472.8 154.069 464.933 149.402 457.733 142.602L452 137.269V115.669V94.0688L458.4 100.069C461.867 103.269 467.467 107.936 471.067 110.202ZM326.667 123.136C329.6 126.202 329.733 127.002 328.933 140.069C327.333 168.336 314.4 194.469 293.6 211.402C286.667 217.136 280.533 218.736 276.4 216.069C272.667 213.669 284.133 178.336 294.933 158.469C304.267 141.402 319.733 119.802 322.533 119.802C323.067 119.802 324.933 121.269 326.667 123.136ZM356.533 157.669C369.2 172.202 369.2 172.469 366 186.202C362.533 200.602 353.6 215.402 342.933 224.469L338.933 227.802L320.533 224.336C310.267 222.469 301.733 220.602 301.467 220.469C301.2 220.202 303.2 218.069 306 215.669C322.4 201.269 335.333 175.802 338.933 150.869C340.8 137.936 338.667 137.136 356.533 157.669ZM284.8 231.402C301.067 252.336 307.6 272.869 306.267 298.469C305.867 306.202 304.533 315.269 303.333 318.736C301.467 323.936 300.267 325.402 295.067 327.802C290.267 330.069 288.667 330.336 287.867 328.869C285.6 325.269 278.667 302.469 276 289.802C273.067 275.802 270.8 238.069 272.533 231.136C273.333 227.802 273.867 227.536 278.267 228.202C280.8 228.602 283.733 230.069 284.8 231.402ZM323.333 236.202L338 239.136L342.267 245.402C350.933 258.469 354.933 279.269 351.6 294.869C350.533 299.669 350 300.202 333.067 308.602L315.733 317.269L316.667 311.002C317.2 307.536 317.467 298.602 317.467 291.269C317.333 274.469 314 260.469 306.4 245.136C303.2 238.869 300.533 233.402 300.267 232.869C299.733 231.802 303.2 232.336 323.333 236.202ZM367.6 314.469C378 319.669 386.533 327.269 393.2 337.269C401.733 349.936 401.6 351.269 391.333 371.802L382.4 389.669L375.6 376.336C366.267 358.069 351.467 343.269 333.333 333.936L320.8 327.402L337.467 319.002C346.533 314.336 355.2 310.602 356.8 310.602C358.267 310.469 363.2 312.336 367.6 314.469ZM326 343.002C347.467 353.802 363.333 371.669 370.8 393.669L374.4 404.469L369.733 413.136C367.2 417.936 364.8 422.069 364.533 422.336C363.6 423.402 338.8 402.336 330 393.002C316.133 378.202 294.667 347.669 294.667 342.602C294.667 341.802 296.933 339.936 299.733 338.469C306.4 334.869 311.333 335.669 326 343.002Z" fill="#08326B"/>
<path d="M591.6 88.6021C592.133 90.7355 592.667 99.6688 592.533 108.469C592.533 121.935 591.867 126.069 588.933 135.135C583.733 150.869 571.867 168.069 553.867 186.069C539.067 200.735 538.8 201.135 535.2 212.335C533.067 218.602 531.067 223.802 530.533 223.802C530 223.802 529.2 221.402 528.667 218.469C528.133 215.535 527.333 213.135 526.8 213.135C524.8 213.135 487.067 244.869 473.6 257.802C449.467 280.869 436.133 301.935 431.067 324.735C429.733 330.869 428.267 335.802 427.733 335.802C427.2 335.802 425.867 333.935 424.667 331.802C423.467 329.535 422.133 327.802 421.467 327.802C419.733 327.802 416.133 344.602 414.4 360.202C413.067 371.802 413.2 378.202 414.667 392.202C417.2 417.402 417.067 420.069 411.733 437.802C409.067 446.602 405.6 461.269 404.133 470.469C401.6 485.935 398 530.202 399.333 531.536C399.6 531.802 401.6 528.602 403.733 524.336C410.267 511.402 421.067 497.136 432.667 485.802L443.733 475.002L439.733 465.269L435.867 455.402L440 445.002C442.4 439.269 444.933 434.069 445.733 433.402C446.667 432.602 454.933 429.002 464.4 425.135C486.667 416.069 502 406.735 514.933 394.602C520.667 389.269 525.333 384.335 525.333 383.802C525.333 383.269 521.6 383.002 517.067 383.402L508.667 384.069L521.067 376.602C551.2 358.602 579.2 333.669 592.667 312.735L595.067 309.002L583.867 309.802C574.667 310.469 573.2 310.335 575.333 309.002C603.333 291.935 620.133 275.802 633.333 253.269C637.733 245.669 645.733 227.002 647.2 220.869L648 217.269L637.867 221.935C632.4 224.335 627.6 226.469 627.2 226.469C626.8 226.469 629.333 223.002 632.8 218.735C649.733 198.069 652.267 176.602 641.2 147.802C633.733 128.202 614.8 103.535 596.267 89.2688L590.533 84.8688L591.6 88.6021ZM613.333 121.802C629.067 143.002 636.267 160.869 636.533 179.135C636.667 188.735 636.267 190.735 632.133 199.002C627.2 209.002 612.133 225.402 596.133 237.802L587.6 244.469L592 244.869C595.6 245.269 613.733 241.935 625.067 238.869L628.267 238.069L625.333 243.935C610.8 272.335 585.867 292.869 536.933 316.602C526.8 321.535 528.8 322.202 552.667 322.335L571.2 322.469L562.667 331.269C553.733 340.335 535.867 354.469 522.4 363.002C518.133 365.669 504.267 373.269 491.333 379.935C478.533 386.602 467.733 392.602 467.333 393.269C466.8 393.935 473.067 394.469 482.267 394.469H498L487.733 401.135C482.133 404.869 469.333 411.402 459.333 415.669C449.333 420.069 439.867 424.469 438.133 425.535C436.4 426.735 433.333 431.802 431.2 437.002C429.067 442.202 426.933 446.469 426.533 446.469C426.133 446.469 424.8 445.402 423.467 443.935C421.467 441.669 421.467 440.869 425.2 430.202L429.2 419.002L427.2 407.135C425.2 395.402 424.133 356.602 425.733 354.869C426.267 354.469 429.067 356.735 431.867 359.935C436.933 365.535 437.2 365.669 437.333 362.469C437.467 353.669 440.267 333.002 442.267 325.802C446.933 308.335 455.333 293.402 469.867 276.602C476 269.535 509.733 239.535 518.8 233.135L522.4 230.469L526.667 242.069C530.267 251.669 531.333 253.269 532.667 251.402C533.467 250.202 537.333 239.535 541.333 227.669L548.4 206.202L561.733 193.269C568.933 186.202 577.867 176.602 581.467 171.802C593.867 155.269 604 130.869 604 117.269C604 114.202 604.4 111.802 605.067 111.802C605.6 111.802 609.333 116.335 613.333 121.802ZM426.533 462.202C431.6 472.335 431.6 472.335 421.867 481.802C416.8 486.469 412.667 490.202 412.533 490.069C412.267 489.669 415.467 468.202 416.667 463.135C418.667 454.335 418.667 454.335 421.467 455.802C422.8 456.602 425.067 459.402 426.533 462.202Z" fill="#08326B"/>
<path d="M629.733 279.802C626.133 284.336 626 285.402 628.8 290.736C630.8 294.602 630.8 294.736 628.667 293.936C622 291.402 620.133 291.669 615.467 295.402C612.8 297.402 610.667 299.536 610.667 299.936C610.667 300.469 614.533 301.936 619.333 303.136C624.133 304.469 628 305.936 628 306.336C628 306.869 625.867 308.336 623.2 309.802C612.267 315.669 594.533 336.336 586.267 352.736C581.733 361.669 576 381.269 576 387.936C576 390.869 575.6 393.136 575.067 393.136C574.133 393.002 570.133 388.202 557.2 371.536L555.067 368.736L550.8 371.669C548.533 373.269 546.667 375.269 546.667 375.936C546.667 376.736 550.933 382.336 556 388.469C561.2 394.602 565.333 399.936 565.333 400.202C565.333 400.469 560.667 401.136 555.067 401.536C530.4 403.536 510.133 413.002 490.4 431.669L485.333 436.336V432.736C485.333 429.402 485.2 429.269 481.733 430.736C479.6 431.669 477.067 433.136 475.867 434.069C474.8 435.002 472.667 435.802 471.2 435.802C469.867 435.936 466.667 437.002 464.267 438.202L460 440.602L466.933 445.269C474.533 450.336 478.933 456.202 476.667 458.202C475.867 458.869 470.267 459.002 463.467 458.336C456.8 457.669 451.333 457.402 451.067 457.669C450.8 457.936 452 463.136 453.867 469.269L457.067 480.469L453.6 483.136C443.733 490.336 424 511.669 424 515.136C424 517.269 477.467 514.736 490.133 512.069C535.467 502.336 572.267 483.136 605.6 451.936C644.133 415.936 670.667 364.602 676.667 314.336L677.6 306.869L663.067 303.136C655.2 301.002 647.467 298.336 645.867 297.002C644.4 295.536 641.2 290.336 638.667 285.136C636.133 280.069 633.867 275.802 633.467 275.936C633.067 275.936 631.333 277.669 629.733 279.802ZM660 313.802C666.8 315.669 672.8 317.402 673.067 317.669C674 318.736 665.067 339.402 658.533 351.269C649.733 367.136 637.067 383.936 623.467 397.669C613.867 407.402 598.933 419.802 597.067 419.802C596.667 419.802 593.733 416.469 590.667 412.469L584.933 405.136L585.867 395.269C588.933 361.936 607.333 332.069 635.467 315.136C639.733 312.602 644.133 310.469 645.2 310.469C646.4 310.469 653.067 311.936 660 313.802ZM570.8 412.602C575.867 413.402 577.467 414.469 582.267 420.469L587.867 427.402L576.933 433.536C554.533 445.936 521.6 456.336 499.2 458.069L488 458.869V455.402C488 451.002 497.467 439.402 506.8 432.202C526.933 416.869 550.4 409.669 570.8 412.602Z" fill="#08326B"/>
<path d="M0 645.136V690.736L25.0667 690.202C48.6667 689.802 50.4 689.669 57.4667 686.336C66.9333 681.936 74.1333 674.736 78.5333 665.269C81.6 658.736 82 656.069 82 643.802C82 631.669 81.6 628.869 78.8 623.269C74.4 614.336 66.6667 607.136 57.6 603.669C50.9333 601.002 46.9333 600.602 25.0667 600.069L0 599.536V645.136ZM47.4667 612.336C59.4667 617.936 64.6667 627.802 64.6667 645.136C64.6667 658.336 62.6667 664.869 56.9333 671.402C50.4 678.869 44 681.136 29.7333 681.136H17.3333V645.136V609.136H29.0667C38.5333 609.136 42 609.802 47.4667 612.336Z" fill="#08326B"/>
<path d="M422 634.069C428 653.002 434.267 673.402 436 679.402L439.2 690.469H447.333H455.6L462 668.735C465.467 656.869 469.733 643.269 471.333 638.469L474.267 629.802L483.2 657.802C488.133 673.135 492.667 687.002 493.2 688.469C494.267 690.869 495.2 691.135 502.133 690.469L509.867 689.802L513.067 679.135C516 668.869 535.733 605.002 537.067 601.402C537.467 600.069 536.267 599.802 531.867 600.069L526.133 600.469L516.267 633.802C510.933 652.069 506 668.335 505.467 669.669C504.8 671.535 503.6 669.002 500.8 659.669C498.8 652.735 494 636.602 490.133 623.802L483.2 600.469L474.267 600.069C464.133 599.669 464 599.802 467.333 609.135C469.333 614.869 469.333 614.869 460.667 641.269C455.867 655.935 452 668.869 452 670.202C451.867 674.735 449.733 668.735 441.467 640.469C436.933 625.002 432.267 609.669 431.2 606.069L429.067 599.802H420.133H411.067L422 634.069Z" fill="#08326B"/>
<path d="M127.2 623.802C124.267 625.002 117.333 632.469 117.333 634.602C117.333 635.269 116.8 635.802 116.133 635.802C115.333 635.802 114.667 633.269 114.4 630.069L114 624.469L107.067 624.069L100 623.669V657.002V690.469H108H116V668.469V646.602L120.133 641.802C124.533 636.869 128.667 635.936 135.2 638.469C138.4 639.669 138.533 639.402 140 632.202C141.333 626.202 141.2 624.602 139.733 623.669C137.6 622.202 130.933 622.336 127.2 623.802Z" fill="#08326B"/>
<path d="M167.867 624.336C154.533 629.136 146.667 641.269 146.667 657.136C146.667 678.202 160.4 692.336 180.667 692.336C189.333 692.202 199.6 688.602 204.933 683.536C208.267 680.336 208.4 679.936 206.933 677.402C206 676.069 204.133 676.469 198.533 679.136C190 683.136 182.667 683.269 175.067 679.936C169.2 677.136 165.2 671.269 163.6 662.736L162.8 658.469H186.933H211.067L210.267 650.736C209.2 637.936 203.2 628.736 193.067 624.469C187.067 622.069 174.533 621.936 167.867 624.336ZM186.8 631.802C189.867 633.536 192.667 638.869 193.867 645.402L194.8 650.469H178.933H162.933L164 646.069C165.6 639.002 168.267 634.336 171.867 632.469C176 630.202 183.2 629.936 186.8 631.802Z" fill="#08326B"/>
<path d="M240 623.669C238.133 624.336 234.133 626.069 231.067 627.669C225.733 630.336 225.467 630.736 226.267 634.869C226.667 637.136 227.2 639.269 227.467 639.536C227.6 639.802 230.267 638.336 233.333 636.336C237.867 633.269 240.533 632.602 246.933 632.469C254 632.469 255.2 632.869 258.133 636.202C260.133 638.602 261.333 641.669 261.333 644.469C261.333 648.869 261.2 649.002 253.733 650.469C239.067 653.402 231.467 656.336 226.4 661.269C221.733 665.669 221.333 666.602 221.333 673.536C221.333 679.936 221.867 681.669 225.333 685.669C232.933 694.336 249.733 694.336 258.667 685.802L262.667 681.936L263.467 686.202C264.267 690.336 264.533 690.469 270.933 690.469H277.467L277.067 663.402C276.667 637.402 276.533 636.336 273.467 631.936C269.067 625.802 261.2 622.469 251.333 622.602C246.933 622.602 241.867 623.136 240 623.669ZM260.133 675.669C256.533 682.202 241.733 684.202 238.667 678.469C234.667 670.869 239.2 662.469 249.067 659.269C260.933 655.536 260.667 655.402 261.067 664.736C261.333 669.402 260.8 674.202 260.133 675.669Z" fill="#08326B"/>
<path d="M324.267 624.736C321.867 625.936 318.8 628.202 317.467 629.936C314.133 634.069 313.6 633.936 313.067 628.736C312.667 624.602 312.533 624.469 305.733 624.069L298.667 623.669V657.002V690.469H306.667H314.667V667.402C314.667 647.269 314.933 643.936 317.2 640.336C322.133 632.202 332.133 631.269 337.467 638.469C339.6 641.402 340 645.002 340.267 666.069L340.667 690.469H348.8H356.933L356.267 673.936C355.467 651.536 356.533 643.402 361.333 638.069C366.133 632.736 374.267 632.202 378.933 636.869C381.867 639.802 382 641.002 382.4 665.136L382.8 690.469H391.067H399.333L398.933 664.202C398.533 640.069 398.267 637.402 395.6 632.602C391.867 626.069 385.333 622.469 376.933 622.469C369.067 622.469 363.2 624.869 358.133 630.336L354.267 634.469L351.867 630.736C347.333 623.136 333.6 620.069 324.267 624.736Z" fill="#08326B"/>
<path d="M564 624.202C561.467 625.002 556.667 628.469 553.2 631.802C541.733 642.736 539.467 661.536 547.867 676.336C554.933 689.002 571.2 695.536 585.467 691.402C597.2 687.936 606.533 680.469 603.2 677.136C602.267 676.202 599.467 676.736 594.133 679.269C578.133 686.602 562.533 679.536 560.4 664.069L559.6 658.469H583.2H606.667V652.736C606.667 640.069 600.4 629.669 590 625.002C584 622.202 571.467 621.802 564 624.202ZM583.867 632.602C587.333 635.136 590.667 642.069 590.667 647.136V650.469H575.333C558.133 650.469 557.867 650.202 561.867 640.602C565.6 631.536 576.533 627.536 583.867 632.602Z" fill="#08326B"/>
<path d="M635.333 624.202C626.667 627.135 622.667 630.335 622.667 634.335C622.667 636.335 622.933 638.335 623.333 638.735C623.733 639.135 627.467 637.669 631.467 635.535C644.533 629.002 654.667 631.269 657.333 641.269C658.267 644.735 658.4 647.269 657.6 648.069C656.933 648.735 651.867 650.202 646.533 651.269C633.867 653.935 623.467 658.602 620.533 663.135C619.333 665.002 618 669.402 617.733 672.869C616.533 684.602 624.8 692.202 638.4 692.069C644.133 692.069 647.067 691.135 652.267 687.935C655.867 685.669 659.067 683.802 659.333 683.802C659.467 683.802 660.133 685.269 660.533 687.135C661.333 690.069 662 690.469 668 690.469H674.667V670.735C674.667 640.602 672.8 632.735 663.733 626.069C659.2 622.735 643.067 621.669 635.333 624.202ZM658.667 665.269C658.667 672.335 658.267 673.802 654.8 677.135C645.2 686.735 631.6 681.935 633.867 669.802C635.067 663.402 645.2 657.402 655.067 657.135C658.667 657.135 658.667 657.269 658.667 665.269Z" fill="#08326B"/>
<path d="M777.467 624.336C770.667 626.736 763.333 633.669 759.867 640.736C755.067 650.469 755.333 664.602 760.533 674.869C769.2 692.602 791.867 697.802 809.867 686.469C821.467 679.136 819.6 673.669 807.467 679.269C791.467 686.602 775.867 679.536 773.733 664.069L772.933 658.469H796.533H820V653.402C820 640.202 813.2 629.002 802.4 624.602C796.533 622.069 783.867 621.936 777.467 624.336ZM797.067 632.602C800.8 635.136 802.133 637.802 803.333 644.736L804.267 650.469H788.8C771.467 650.469 771.2 650.202 775.2 640.602C778.933 631.669 789.867 627.536 797.067 632.602Z" fill="#08326B"/>
<path d="M857.067 629.269L850.667 636.069V632.069C850.667 624.869 849.6 623.802 842.533 623.802H836V657.136V690.469H843.867H851.867L852.267 667.936L852.667 645.269L856.667 641.136C860 637.536 861.333 637.002 865.333 637.536C867.867 637.936 870.933 638.602 872.133 639.136C873.867 639.802 874.533 638.469 875.867 632.336C877.6 623.402 876.933 622.469 868.8 622.469C864.133 622.469 862.667 623.269 857.067 629.269Z" fill="#08326B"/>
<path d="M684 624.736C684 625.402 689.867 640.336 696.933 658.069L710 690.469H716.8H723.6L734.533 663.402C740.533 648.602 746.667 633.536 748.133 630.069L750.667 623.669L745.067 624.069L739.467 624.469L730.133 648.869C725.067 662.202 720.4 672.736 719.867 672.202C719.333 671.669 715.2 661.536 710.933 649.802C706.533 638.069 702.533 627.402 702 626.069C701.2 624.202 699.467 623.802 692.533 623.802C687.867 623.802 684 624.202 684 624.736Z" fill="#08326B"/>
</svg>
